# xmcd CD database file
#
# Track frame offsets:
#	150
#	20080
#	40955
#	59712
#	77830
#	94785
#	114557
#	137047
#	153250
#	171372
#	190472
#	198532
#	215252
#
# Disc length: 3171 seconds
#
# Revision: 1
# Processed by: cddbd v1.4PL0 Copyright (c) Steve Scherf et al.
# Submitted via: CDex 1.50Beta7
#
DISCID=be0c610d
DTITLE=Kashmir - Cruzential
DYEAR=1997
DGENRE=Rock
TTITLE0=Vote 4 Dick Taid
TTITLE1=Stand
TTITLE2=Prawn's Blues
TTITLE3=Bring Back Superman
TTITLE4=Travelogue
TTITLE5=Could We Kill Fred?
TTITLE6=Dring
TTITLE7=Star In My Movie
TTITLE8=Gloom
TTITLE9=Beamed
TTITLE10=Lollypork Stomp
TTITLE11=Victoria
TTITLE12=Bag Of Flash and Thyme
EXTD=YEAR: 1997
EXTT0=
EXTT1=
EXTT2=
EXTT3=
EXTT4=
EXTT5=
EXTT6=
EXTT7=
EXTT8=
EXTT9=
EXTT10=
EXTT11=
EXTT12=
PLAYORDER=
